# xmcd
#
# Track frame offsets: 
#        150
#        18648
#        36323
#        58848
#        107847
#        135379
#        148375
#        166384
#        186832
#        201744
#        223904
#        248146
#        262923
#        279417
#        304407
#        322128
#        342468
#
# Disc length: 4795 seconds
#
# Revision: 0
# Processed by: cddbd v1.5.2PL0 Copyright (c) Steve Scherf et al.
# Submitted via: ExactAudioCopy v1.1
#
DISCID=1e12b911
DTITLE=Various Artist - Akella Presents - vol.58 - Various Styles Of 
DTITLE=Blues - CD1
DYEAR=2015
DGENRE=Blues
TTITLE0=Jay Jesse Johnson - Voodoo Woman
TTITLE1=Mike Zito and The Wheel - Bootleg
TTITLE2=Bill Leverty - Spanish Moon
TTITLE3=Ronnie Earl and Diane Blue - In the Wee Hours
TTITLE4=Bily Gibbons and The BFG's - You're What's Happenin', Baby
TTITLE5=Delbert McClinton and Glen Clark - More and More, Less and Less
TTITLE6=Slowburner - Ouch! (Give a Little Bit)
TTITLE7=Craig Erickson - Boogie For Love
TTITLE8=Billy Walton Band - Mountain
TTITLE9=Pepe Ahlqvist and The Rolling Tumbleweed - The Big One
TTITLE10=Jeff Pitchell and Texas Flood - Good To Be Home
TTITLE11=Red Rooster - Foolin' Me
TTITLE12=The Buddaheads - Cold Man Cold
TTITLE13=Big Mike Griffin - Two Lane Road
TTITLE14=Robert J. Hunter - Scared of Loving You
TTITLE15=Andy T - Nick Nixon Band - Numbers Man
TTITLE16=Leslie West - You Are My Sunshine
EXTD=
EXTT0=
EXTT1=
EXTT2=
EXTT3=
EXTT4=
EXTT5=
EXTT6=
EXTT7=
EXTT8=
EXTT9=
EXTT10=
EXTT11=
EXTT12=
EXTT13=
EXTT14=
EXTT15=
EXTT16=
PLAYORDER=
